<svg width="589" height="159" viewBox="0 0 589 159" fill="none" xmlns="http://www.w3.org/2000/svg">
<path d="M238.786 86.0168H202.53L196.26 122H171.59L188.9 23.864H257.322L253.506 45.1268H209.617L206.21 64.754H242.466L238.786 86.0168ZM313.916 101.01C313.916 103.372 315.098 104.554 317.46 104.554C319.913 104.554 321.958 104.099 323.594 103.191L322.912 118.592C318.55 122.136 313.644 123.908 308.192 123.908C298.196 123.908 292.653 120.274 291.563 113.004C287.02 120.274 280.341 123.908 271.527 123.908C256.625 123.908 249.174 117.502 249.174 104.69C249.174 102.509 249.401 100.101 249.855 97.466L252.718 81.5189C254.171 73.3409 257.488 66.8439 262.667 62.028C267.938 57.1212 274.753 54.6678 283.112 54.6678C291.563 54.6678 297.288 56.6214 300.286 60.5287L300.968 56.4397H321.685L314.053 99.3742C313.962 99.9194 313.916 100.465 313.916 101.01ZM273.571 94.4674C273.39 95.2852 273.299 96.421 273.299 97.8749C273.299 99.3288 273.98 100.783 275.343 102.236C276.706 103.599 278.978 104.281 282.158 104.281C285.43 104.281 288.246 103.009 290.609 100.465L294.698 77.5662C293.698 75.2945 291.336 74.1587 287.61 74.1587C280.614 74.1587 276.525 77.5208 275.343 84.2449L273.571 94.4674ZM371.873 80.1559C371.873 76.2486 369.965 74.295 366.149 74.295C362.423 74.295 359.334 75.7034 356.88 78.5203L349.247 122H326.076L337.662 56.4397H359.197L357.698 64.4814C363.059 57.8481 369.829 54.5315 378.007 54.5315C386.185 54.5315 391.5 56.5306 393.954 60.5287C395.498 63.073 396.271 65.9807 396.271 69.2519C396.271 72.5231 396.044 75.5671 395.589 78.384L391.909 99.3742C391.818 99.9194 391.773 100.419 391.773 100.873C391.773 103.327 393.136 104.554 395.862 104.554C397.952 104.554 399.815 104.099 401.45 103.191L400.769 118.592C396.498 122.136 391.637 123.908 386.185 123.908C373.827 123.908 367.648 118.729 367.648 108.37C367.648 106.553 367.83 104.599 368.193 102.509L371.464 84.3812C371.737 82.7456 371.873 81.3372 371.873 80.1559ZM434.613 123.908C424.073 123.908 416.485 121.546 411.851 116.821C408.398 113.368 406.672 108.733 406.672 102.918C406.672 101.01 406.854 98.9653 407.217 96.7845L416.485 44.0364L441.428 33.6776L437.476 56.4397H475.094L471.687 75.658H434.068L431.342 91.0599C430.979 92.7864 430.797 94.3311 430.797 95.6941C430.797 101.419 433.523 104.281 438.975 104.281C441.883 104.281 444.291 103.054 446.199 100.601C448.198 98.1475 449.561 94.8763 450.288 90.7873H472.914C469.097 112.868 456.33 123.908 434.613 123.908ZM505.01 104.554C507.1 104.554 508.962 104.099 510.598 103.191L509.916 118.592C505.646 122.136 500.784 123.908 495.332 123.908C487.064 123.908 481.702 122 479.249 118.184C477.613 115.639 476.796 112.959 476.796 110.142C476.796 107.234 476.977 104.69 477.341 102.509L485.519 56.4397H508.69L501.057 99.3742C500.966 99.9194 500.921 100.419 500.921 100.873C500.921 103.327 502.284 104.554 505.01 104.554ZM488.245 34.2228C488.245 28.4073 489.517 24.182 492.061 21.5469C494.696 18.8209 498.74 17.4579 504.192 17.4579C511.825 17.4579 515.641 20.82 515.641 27.5441C515.641 33.2687 514.324 37.4486 511.688 40.0837C509.144 42.7188 505.101 44.0364 499.558 44.0364C492.016 44.0364 488.245 40.7652 488.245 34.2228ZM555.731 54.5315C565.545 54.5315 572.95 56.6669 577.948 60.9376C581.855 64.2997 583.809 68.9793 583.809 74.9765C583.809 76.9756 583.582 79.1564 583.127 81.5189L580.265 97.466C578.538 107.098 574.495 113.913 568.134 117.911C561.864 121.909 553.459 123.908 542.919 123.908C532.378 123.908 524.655 121.909 519.748 117.911C516.113 114.912 514.296 110.414 514.296 104.417C514.296 102.327 514.523 100.01 514.977 97.466L517.84 81.5189C521.02 63.5273 533.65 54.5315 555.731 54.5315ZM559.411 84.2449C559.593 83.3362 559.684 82.2004 559.684 80.8374C559.684 79.3835 559.093 77.7934 557.912 76.0669C556.73 74.3404 554.641 73.4772 551.642 73.4772C548.734 73.4772 546.281 74.4767 544.282 76.4758C542.283 78.384 541.011 80.9737 540.465 84.2449L538.693 94.4674C538.512 95.3761 538.421 96.5573 538.421 98.0112C538.421 99.3742 539.011 100.873 540.193 102.509C541.374 104.145 543.419 104.962 546.326 104.962C549.325 104.962 551.824 103.963 553.823 101.964C555.822 99.874 557.094 97.3751 557.639 94.4674L559.411 84.2449Z" fill="white"/>
<mask id="mask0_271_19886" style="mask-type:alpha" maskUnits="userSpaceOnUse" x="36" y="60" width="65" height="65">
<circle cx="68.1252" cy="92.1127" r="31.9836" fill="url(#paint0_linear_271_19886)"/>
</mask>
<g mask="url(#mask0_271_19886)">
<path fill-rule="evenodd" clip-rule="evenodd" d="M36.1663 107.328C35.425 106.587 35.425 105.385 36.1663 104.644L37.9812 102.829C38.4405 104.121 38.9805 105.375 39.5951 106.584L38.8506 107.328C38.1094 108.07 36.9075 108.07 36.1663 107.328ZM42.1341 110.756C41.1863 109.437 40.3364 108.042 39.5951 106.584L40.7613 105.418C41.5026 104.676 41.5026 103.475 40.7613 102.733C40.0201 101.992 38.8183 101.992 38.077 102.733L37.9812 102.829C36.7901 99.4789 36.1417 95.8715 36.1417 92.1126C36.1417 74.4486 50.4612 60.129 68.1252 60.129C72.1568 60.129 76.0142 60.875 79.5669 62.2364C79.6102 62.6547 79.7921 63.0614 80.1127 63.3819C80.784 64.0533 81.8331 64.1166 82.5757 63.5719C84.0419 64.3157 85.443 65.1692 86.7684 66.1215L42.1341 110.756ZM44.5413 113.717L43.5483 114.71L40.8639 112.026L42.1341 110.756C42.8779 111.791 43.682 112.78 44.5413 113.717ZM89.7298 68.5287L44.5413 113.717C45.6114 114.885 46.7671 115.973 47.9984 116.971L46.9036 118.066L49.5879 120.75L51.1274 119.21C52.5254 120.089 53.9961 120.863 55.5286 121.52L54.2854 122.763C53.5442 123.504 53.5442 124.706 54.2854 125.447C55.0267 126.189 56.2285 126.189 56.9698 125.447L58.8805 123.537C59.0771 123.34 59.2215 123.111 59.3138 122.867C62.1129 123.668 65.069 124.096 68.1252 124.096C85.7893 124.096 100.109 109.777 100.109 92.1126C100.109 88.431 99.4867 84.8947 98.342 81.603C99.0878 82.2406 100.211 82.2067 100.916 81.5011L102.827 79.5904C103.568 78.8491 103.568 77.6473 102.827 76.9061C102.086 76.1648 100.884 76.1648 100.143 76.9061L98.2319 78.8168C97.9276 79.121 97.7483 79.5028 97.6938 79.8984C97.0029 78.2279 96.1747 76.6287 95.223 75.1148L98.1293 72.2085L95.445 69.5242L92.9834 71.9858C91.9852 70.7545 90.8974 69.5988 89.7298 68.5287ZM89.7298 68.5287L92.0897 66.1688L89.4054 63.4845L86.7684 66.1215C87.8035 66.8653 88.7923 67.6694 89.7298 68.5287ZM92.9834 71.9858C93.7903 72.9811 94.5386 74.0259 95.223 75.1148L51.1274 119.21C50.0385 118.526 48.9937 117.778 47.9984 116.971L92.9834 71.9858ZM97.6938 79.8984C97.6154 80.4669 97.7948 81.064 98.2319 81.5011C98.2675 81.5368 98.3043 81.5707 98.342 81.603C98.1417 81.0271 97.9255 80.4588 97.6938 79.8984ZM59.3138 122.867C59.5696 122.19 59.4251 121.397 58.8805 120.852C58.1392 120.111 56.9374 120.111 56.1962 120.852L55.5286 121.52C56.7528 122.045 58.0165 122.496 59.3138 122.867ZM82.5757 63.5719C82.6531 63.5152 82.7271 63.4519 82.797 63.3819L84.7077 61.4712C85.449 60.73 85.449 59.5282 84.7077 58.7869C83.9665 58.0456 82.7647 58.0456 82.0234 58.7869L80.1127 60.6976C79.692 61.1183 79.5101 61.6874 79.5669 62.2364C80.5965 62.6309 81.6005 63.0772 82.5757 63.5719ZM41.8984 101.596C41.1572 100.855 41.1572 99.6531 41.8984 98.9119L45.7199 95.0905C46.4611 94.3492 47.6629 94.3492 48.4042 95.0905C49.1454 95.8317 49.1454 97.0335 48.4042 97.7748L44.5828 101.596C43.8415 102.337 42.6397 102.337 41.8984 101.596ZM49.5413 93.9533C48.8 93.2121 48.8 92.0103 49.5413 91.269L53.3627 87.4476C54.104 86.7063 55.3058 86.7063 56.047 87.4476C56.7883 88.1889 56.7883 89.3907 56.047 90.1319L52.2256 93.9533C51.4844 94.6946 50.2825 94.6946 49.5413 93.9533ZM57.1841 86.3105C56.4429 85.5692 56.4429 84.3674 57.1841 83.6262L61.0056 79.8047C61.7468 79.0635 62.9486 79.0635 63.6899 79.8047C64.4311 80.546 64.4311 81.7478 63.6899 82.4891L59.8685 86.3105C59.1272 87.0517 57.9254 87.0517 57.1841 86.3105ZM64.827 78.6676C64.0857 77.9264 64.0857 76.7246 64.827 75.9833L68.6484 72.1619C69.3897 71.4206 70.5915 71.4206 71.3327 72.1619C72.074 72.9031 72.074 74.105 71.3327 74.8462L67.5113 78.6676C66.7701 79.4089 65.5682 79.4089 64.827 78.6676ZM72.4698 71.0248C71.7286 70.2835 71.7286 69.0817 72.4698 68.3405L76.2913 64.519C77.0325 63.7778 78.2343 63.7778 78.9756 64.519C79.7168 65.2603 79.7168 66.4621 78.9756 67.2034L75.1542 71.0248C74.4129 71.766 73.2111 71.766 72.4698 71.0248ZM60.0176 117.031C59.2763 117.772 59.2763 118.974 60.0176 119.715C60.7588 120.457 61.9607 120.457 62.7019 119.715L66.5233 115.894C67.2646 115.153 67.2646 113.951 66.5233 113.21C65.7821 112.468 64.5803 112.468 63.839 113.21L60.0176 117.031ZM67.6604 109.388C66.9192 110.129 66.9192 111.331 67.6604 112.072C68.4017 112.814 69.6035 112.814 70.3448 112.072L74.1662 108.251C74.9074 107.51 74.9074 106.308 74.1662 105.567C73.4249 104.825 72.2231 104.826 71.4819 105.567L67.6604 109.388ZM75.3033 101.745C74.562 102.487 74.562 103.688 75.3033 104.43C76.0445 105.171 77.2464 105.171 77.9876 104.43L81.809 100.608C82.5503 99.867 82.5503 98.6652 81.809 97.9239C81.0678 97.1826 79.866 97.1826 79.1247 97.9239L75.3033 101.745ZM82.9461 94.1025C82.2049 94.8437 82.2049 96.0455 82.9461 96.7868C83.6874 97.528 84.8892 97.528 85.6305 96.7868L89.4519 92.9654C90.1931 92.2241 90.1931 91.0223 89.4519 90.281C88.7106 89.5398 87.5088 89.5398 86.7676 90.281L82.9461 94.1025ZM90.589 86.4596C89.8477 87.2009 89.8477 88.4027 90.589 89.1439C91.3303 89.8852 92.5321 89.8852 93.2733 89.1439L97.0947 85.3225C97.836 84.5813 97.836 83.3794 97.0947 82.6382C96.3535 81.8969 95.1517 81.8969 94.4104 82.6382L90.589 86.4596Z" fill="url(#paint1_linear_271_19886)"/>
</g>
<path fill-rule="evenodd" clip-rule="evenodd" d="M136.25 90.8333V0L83.2639 24.3963V3.42896L33.1154 32.3803C13.2763 44.2883 0 66.0104 0 90.8333C0 128.458 30.5006 158.958 68.125 158.958C105.75 158.958 136.25 128.458 136.25 90.8333ZM68.125 133.052C90.735 133.052 109.064 114.723 109.064 92.1127C109.064 69.5027 90.735 51.1737 68.125 51.1737C45.515 51.1737 27.186 69.5027 27.186 92.1127C27.186 114.723 45.515 133.052 68.125 133.052Z" fill="url(#paint2_linear_271_19886)"/>
<defs>
<linearGradient id="paint0_linear_271_19886" x1="36.6807" y1="62.9848" x2="101.146" y2="64.7849" gradientUnits="userSpaceOnUse">
<stop stop-color="#F4A63A"/>
<stop offset="0.333333" stop-color="#F33FD6"/>
<stop offset="0.666667" stop-color="#5E82F9"/>
<stop offset="1" stop-color="#1EAEE9"/>
</linearGradient>
<linearGradient id="paint1_linear_271_19886" x1="36.1815" y1="61.2565" x2="104.482" y2="63.1637" gradientUnits="userSpaceOnUse">
<stop stop-color="#F4A63A"/>
<stop offset="0.333333" stop-color="#F33FD6"/>
<stop offset="0.666667" stop-color="#5E82F9"/>
<stop offset="1" stop-color="#1EAEE9"/>
</linearGradient>
<linearGradient id="paint2_linear_271_19886" x1="1.14817" y1="7.09635" x2="138.488" y2="10.3835" gradientUnits="userSpaceOnUse">
<stop stop-color="#F4A63A"/>
<stop offset="0.333333" stop-color="#F33FD6"/>
<stop offset="0.666667" stop-color="#5E82F9"/>
<stop offset="1" stop-color="#1EAEE9"/>
</linearGradient>
</defs>
</svg>
