<svg width="74" height="21" viewBox="0 0 74 21" fill="none" xmlns="http://www.w3.org/2000/svg">
<mask id="mask0_271_14001" style="mask-type:alpha" maskUnits="userSpaceOnUse" x="4" y="7" width="10" height="10">
<circle cx="9.00001" cy="12.169" r="4.22535" fill="url(#paint0_linear_271_14001)"/>
</mask>
<g mask="url(#mask0_271_14001)">
<path fill-rule="evenodd" clip-rule="evenodd" d="M4.77779 14.1791C4.67986 14.0812 4.67986 13.9224 4.77779 13.8245L5.01751 13.5848C5.07819 13.7555 5.14952 13.9211 5.23072 14.0808L5.13242 14.1791C5.03449 14.2771 4.87572 14.2771 4.77779 14.1791ZM5.56615 14.632C5.44093 14.4577 5.32866 14.2735 5.23072 14.0808L5.38484 13.9267C5.48277 13.8288 5.48277 13.67 5.38484 13.5721C5.28691 13.4742 5.12814 13.4742 5.03022 13.5721L5.01751 13.5848C4.86015 13.1422 4.77448 12.6656 4.77448 12.169C4.77448 9.83541 6.66624 7.94366 8.99983 7.94366C9.53247 7.94366 10.0421 8.04222 10.5115 8.22209C10.5172 8.27733 10.5412 8.33103 10.5836 8.37337C10.6722 8.46204 10.8108 8.47042 10.9089 8.3985C11.1026 8.49677 11.2877 8.60952 11.4628 8.73533L5.56615 14.632ZM5.88416 15.0232L5.75301 15.1544L5.39839 14.7997L5.56615 14.632C5.66441 14.7687 5.77064 14.8994 5.88416 15.0232ZM11.854 9.05334L5.88416 15.0232C6.02551 15.1774 6.17815 15.3211 6.34079 15.453L6.1961 15.5976L6.55073 15.9523L6.75414 15.7488C6.93885 15.865 7.13318 15.9672 7.33567 16.054L7.17139 16.2183C7.07346 16.3162 7.07346 16.475 7.17139 16.5729C7.26932 16.6708 7.42809 16.6708 7.52602 16.5729L7.77844 16.3205C7.80442 16.2945 7.82351 16.2642 7.83571 16.232C8.20551 16.3377 8.59606 16.3944 8.99983 16.3944C11.3334 16.3944 13.2252 14.5026 13.2252 12.169C13.2252 11.6827 13.143 11.2155 12.9918 10.7807C13.0903 10.8648 13.2386 10.8603 13.3318 10.7672L13.5842 10.5147C13.6821 10.4168 13.6821 10.258 13.5842 10.1601C13.4863 10.0622 13.3275 10.0622 13.2296 10.1601L12.9772 10.4125C12.937 10.4527 12.9133 10.5031 12.9061 10.5553C12.8148 10.3346 12.7054 10.1233 12.5797 9.92332L12.9635 9.53945L12.6089 9.18482L12.2838 9.50997C12.1519 9.34733 12.0082 9.19469 11.854 9.05334ZM11.854 9.05334L12.1658 8.74154L11.8112 8.38691L11.4628 8.73533C11.5995 8.83359 11.7302 8.93982 11.854 9.05334ZM12.2838 9.50997C12.3904 9.64145 12.4892 9.77947 12.5797 9.92332L6.75414 15.7488C6.61029 15.6584 6.47227 15.5596 6.34079 15.453L12.2838 9.50997ZM12.9061 10.5553C12.8957 10.6304 12.9194 10.7094 12.9772 10.7672C12.9819 10.7719 12.9868 10.7764 12.9918 10.7807C12.9653 10.7046 12.9367 10.6294 12.9061 10.5553ZM7.83571 16.232C7.86947 16.1426 7.85038 16.0378 7.77844 15.9659C7.68051 15.8679 7.52174 15.8679 7.42382 15.9659L7.33567 16.054C7.49739 16.1234 7.66432 16.183 7.83571 16.232ZM10.9089 8.3985C10.9191 8.391 10.9289 8.38262 10.9382 8.37337L11.1906 8.12094C11.2885 8.02302 11.2885 7.86424 11.1906 7.76632C11.0927 7.66839 10.9339 7.66839 10.836 7.76632L10.5836 8.01874C10.528 8.07433 10.5039 8.14954 10.5115 8.22209C10.6475 8.2742 10.7801 8.33315 10.9089 8.3985ZM5.53506 13.4219C5.43714 13.3239 5.43714 13.1652 5.53506 13.0672L6.03991 12.5624C6.13784 12.4645 6.29661 12.4645 6.39454 12.5624C6.49247 12.6603 6.49247 12.8191 6.39454 12.917L5.88969 13.4219C5.79176 13.5198 5.63299 13.5198 5.53506 13.4219ZM6.54476 12.4122C6.44684 12.3142 6.44684 12.1555 6.54476 12.0575L7.04961 11.5527C7.14754 11.4548 7.30631 11.4548 7.40424 11.5527C7.50216 11.6506 7.50216 11.8094 7.40424 11.9073L6.89939 12.4122C6.80146 12.5101 6.64269 12.5101 6.54476 12.4122ZM7.55446 11.4025C7.45653 11.3045 7.45653 11.1458 7.55446 11.0478L8.05931 10.543C8.15724 10.4451 8.31601 10.4451 8.41394 10.543C8.51186 10.6409 8.51186 10.7997 8.41394 10.8976L7.90909 11.4025C7.81116 11.5004 7.65239 11.5004 7.55446 11.4025ZM8.56416 10.3928C8.46623 10.2948 8.46623 10.1361 8.56416 10.0381L9.06901 9.53329C9.16694 9.43536 9.32571 9.43536 9.42363 9.53329C9.52156 9.63122 9.52156 9.78999 9.42363 9.88791L8.91878 10.3928C8.82086 10.4907 8.66209 10.4907 8.56416 10.3928ZM9.57386 9.38306C9.47593 9.28514 9.47593 9.12637 9.57386 9.02844L10.0787 8.52359C10.1766 8.42566 10.3354 8.42566 10.4333 8.52359C10.5313 8.62152 10.5313 8.78029 10.4333 8.87822L9.92848 9.38306C9.83056 9.48099 9.67178 9.48099 9.57386 9.38306ZM7.92866 15.461C7.83074 15.559 7.83074 15.7177 7.92866 15.8156C8.02659 15.9136 8.18536 15.9136 8.28329 15.8156L8.78814 15.3108C8.88607 15.2129 8.88607 15.0541 8.78814 14.9562C8.69021 14.8582 8.53144 14.8582 8.43351 14.9562L7.92866 15.461ZM8.93836 14.4513C8.84043 14.5493 8.84043 14.708 8.93836 14.806C9.03629 14.9039 9.19506 14.9039 9.29299 14.806L9.79784 14.3011C9.89576 14.2032 9.89576 14.0444 9.79784 13.9465C9.69991 13.8485 9.54114 13.8485 9.44321 13.9465L8.93836 14.4513ZM9.94806 13.4416C9.85013 13.5396 9.85013 13.6983 9.94806 13.7963C10.046 13.8942 10.2048 13.8942 10.3027 13.7963L10.8075 13.2914C10.9055 13.1935 10.9055 13.0347 10.8075 12.9368C10.7096 12.8389 10.5508 12.8389 10.4529 12.9368L9.94806 13.4416ZM10.9578 12.4319C10.8598 12.5299 10.8598 12.6886 10.9578 12.7866C11.0557 12.8845 11.2145 12.8845 11.3124 12.7866L11.8172 12.2817C11.9152 12.1838 11.9152 12.025 11.8172 11.9271C11.7193 11.8292 11.5605 11.8292 11.4626 11.9271L10.9578 12.4319ZM11.9675 11.4222C11.8695 11.5202 11.8695 11.6789 11.9675 11.7769C12.0654 11.8748 12.2242 11.8748 12.3221 11.7769L12.8269 11.272C12.9249 11.1741 12.9249 11.0153 12.8269 10.9174C12.729 10.8195 12.5702 10.8195 12.4723 10.9174L11.9675 11.4222Z" fill="url(#paint1_linear_271_14001)"/>
</g>
<path fill-rule="evenodd" clip-rule="evenodd" d="M18 12V0L11 3.223V0.453L4.37488 4.27777C1.75393 5.85093 0 8.72064 0 12C0 16.9706 4.02944 21 9 21C13.9706 21 18 16.9706 18 12ZM9.00001 17.5774C11.987 17.5774 14.4085 15.156 14.4085 12.169C14.4085 9.182 11.987 6.76055 9.00001 6.76055C6.01301 6.76055 3.59156 9.182 3.59156 12.169C3.59156 15.156 6.01301 17.5774 9.00001 17.5774Z" fill="url(#paint2_linear_271_14001)"/>
<path d="M31.0318 11.0939H26.5923L25.8245 15.5H22.8037L24.9233 3.48335H33.3016L32.8343 6.08695H27.4601L27.0429 8.49029H31.4824L31.0318 11.0939ZM39.8403 12.9298C39.8403 13.2191 39.9849 13.3637 40.2742 13.3637C40.5746 13.3637 40.825 13.3081 41.0252 13.1968L40.9418 15.0828C40.4077 15.5167 39.8069 15.7337 39.1393 15.7337C37.9154 15.7337 37.2367 15.2886 37.1031 14.3985C36.5468 15.2886 35.729 15.7337 34.6497 15.7337C32.825 15.7337 31.9126 14.9492 31.9126 13.3804C31.9126 13.1134 31.9404 12.8185 31.9961 12.4958L32.3466 10.5431C32.5246 9.54174 32.9307 8.7462 33.5649 8.15649C34.2102 7.55566 35.0447 7.25524 36.0684 7.25524C37.1031 7.25524 37.8041 7.49446 38.1713 7.9729L38.2547 7.47221H40.7916L39.857 12.7295C39.8458 12.7963 39.8403 12.863 39.8403 12.9298ZM34.9001 12.1287C34.8778 12.2288 34.8667 12.3679 34.8667 12.5459C34.8667 12.7239 34.9502 12.902 35.1171 13.08C35.284 13.2469 35.5621 13.3303 35.9515 13.3303C36.3521 13.3303 36.697 13.1746 36.9863 12.863L37.487 10.0591C37.3646 9.78096 37.0753 9.64188 36.6191 9.64188C35.7624 9.64188 35.2617 10.0536 35.1171 10.8769L34.9001 12.1287ZM46.937 10.3762C46.937 9.89779 46.7034 9.65857 46.2361 9.65857C45.7799 9.65857 45.4016 9.83103 45.1012 10.176L44.1665 15.5H41.3293L42.7479 7.47221H45.3849L45.2013 8.45691C45.8578 7.64467 46.6867 7.23855 47.6881 7.23855C48.6895 7.23855 49.3404 7.48333 49.6408 7.9729C49.8299 8.28444 49.9245 8.64049 49.9245 9.04105C49.9245 9.4416 49.8967 9.81434 49.8411 10.1593L49.3904 12.7295C49.3793 12.7963 49.3737 12.8574 49.3737 12.9131C49.3737 13.2135 49.5406 13.3637 49.8744 13.3637C50.1303 13.3637 50.3584 13.3081 50.5587 13.1968L50.4753 15.0828C49.9523 15.5167 49.3571 15.7337 48.6895 15.7337C47.1763 15.7337 46.4196 15.0994 46.4196 13.831C46.4196 13.6085 46.4419 13.3693 46.4864 13.1134L46.887 10.8936C46.9203 10.6933 46.937 10.5209 46.937 10.3762ZM54.6195 15.7337C53.3288 15.7337 52.3998 15.4444 51.8323 14.8658C51.4095 14.443 51.1981 13.8755 51.1981 13.1634C51.1981 12.9298 51.2203 12.6794 51.2648 12.4124L52.3998 5.95344L55.454 4.68501L54.97 7.47221H59.5764L59.1591 9.82547H54.5527L54.2189 11.7114C54.1744 11.9228 54.1522 12.112 54.1522 12.2789C54.1522 12.9798 54.486 13.3303 55.1536 13.3303C55.5096 13.3303 55.8045 13.1801 56.0381 12.8797C56.2829 12.5793 56.4498 12.1787 56.5388 11.678H59.3093C58.842 14.3818 57.2787 15.7337 54.6195 15.7337ZM63.2395 13.3637C63.4954 13.3637 63.7235 13.3081 63.9237 13.1968L63.8403 15.0828C63.3173 15.5167 62.7221 15.7337 62.0545 15.7337C61.042 15.7337 60.3855 15.5 60.0851 15.0327C59.8848 14.7211 59.7847 14.3929 59.7847 14.048C59.7847 13.6919 59.8069 13.3804 59.8514 13.1134L60.8528 7.47221H63.6901L62.7555 12.7295C62.7443 12.7963 62.7388 12.8574 62.7388 12.9131C62.7388 13.2135 62.9057 13.3637 63.2395 13.3637ZM61.1866 4.75177C61.1866 4.03967 61.3424 3.52229 61.6539 3.19962C61.9766 2.86582 62.4717 2.69893 63.1393 2.69893C64.074 2.69893 64.5413 3.11061 64.5413 3.93397C64.5413 4.63494 64.3799 5.14676 64.0573 5.46943C63.7457 5.7921 63.2506 5.95344 62.5719 5.95344C61.6484 5.95344 61.1866 5.55288 61.1866 4.75177ZM69.4502 7.23855C70.6519 7.23855 71.5587 7.50002 72.1707 8.02297C72.6491 8.43465 72.8883 9.00767 72.8883 9.74202C72.8883 9.9868 72.8605 10.2538 72.8049 10.5431L72.4544 12.4958C72.243 13.6752 71.7479 14.5097 70.969 14.9993C70.2013 15.4889 69.1721 15.7337 67.8814 15.7337C66.5907 15.7337 65.645 15.4889 65.0441 14.9993C64.5991 14.6321 64.3765 14.0814 64.3765 13.347C64.3765 13.0911 64.4043 12.8074 64.46 12.4958L64.8105 10.5431C65.1999 8.34008 66.7465 7.23855 69.4502 7.23855ZM69.9009 10.8769C69.9231 10.7657 69.9342 10.6266 69.9342 10.4597C69.9342 10.2817 69.8619 10.0869 69.7173 9.87554C69.5726 9.66413 69.3167 9.55843 68.9495 9.55843C68.5935 9.55843 68.2931 9.68082 68.0483 9.92561C67.8035 10.1593 67.6477 10.4764 67.581 10.8769L67.364 12.1287C67.3418 12.2399 67.3306 12.3846 67.3306 12.5626C67.3306 12.7295 67.4029 12.9131 67.5476 13.1134C67.6922 13.3136 67.9426 13.4138 68.2986 13.4138C68.6658 13.4138 68.9718 13.2914 69.2166 13.0466C69.4614 12.7907 69.6171 12.4847 69.6839 12.1287L69.9009 10.8769Z" fill="white"/>
<defs>
<linearGradient id="paint0_linear_271_14001" x1="4.84587" y1="8.32087" x2="13.3624" y2="8.55868" gradientUnits="userSpaceOnUse">
<stop stop-color="#F4A63A"/>
<stop offset="0.333333" stop-color="#F33FD6"/>
<stop offset="0.666667" stop-color="#5E82F9"/>
<stop offset="1" stop-color="#1EAEE9"/>
</linearGradient>
<linearGradient id="paint1_linear_271_14001" x1="4.7798" y1="8.09258" x2="13.803" y2="8.34454" gradientUnits="userSpaceOnUse">
<stop stop-color="#F4A63A"/>
<stop offset="0.333333" stop-color="#F33FD6"/>
<stop offset="0.666667" stop-color="#5E82F9"/>
<stop offset="1" stop-color="#1EAEE9"/>
</linearGradient>
<linearGradient id="paint2_linear_271_14001" x1="0.151685" y1="0.9375" x2="18.2957" y2="1.37177" gradientUnits="userSpaceOnUse">
<stop stop-color="#F4A63A"/>
<stop offset="0.333333" stop-color="#F33FD6"/>
<stop offset="0.666667" stop-color="#5E82F9"/>
<stop offset="1" stop-color="#1EAEE9"/>
</linearGradient>
</defs>
</svg>
