<svg width="74" height="21" viewBox="0 0 74 21" fill="none" xmlns="http://www.w3.org/2000/svg">
<mask id="mask0_271_13764" style="mask-type:alpha" maskUnits="userSpaceOnUse" x="4" y="7" width="10" height="10">
<circle cx="9.00025" cy="12.169" r="4.22535" fill="url(#paint0_linear_271_13764)"/>
</mask>
<g mask="url(#mask0_271_13764)">
<path fill-rule="evenodd" clip-rule="evenodd" d="M4.77804 14.1791C4.68011 14.0812 4.68011 13.9224 4.77804 13.8245L5.01775 13.5848C5.07843 13.7555 5.14977 13.9211 5.23096 14.0808L5.13266 14.1791C5.03473 14.2771 4.87596 14.2771 4.77804 14.1791ZM5.56639 14.632C5.44118 14.4577 5.3289 14.2735 5.23096 14.0808L5.38509 13.9267C5.48301 13.8288 5.48301 13.67 5.38509 13.5721C5.28716 13.4742 5.12839 13.4742 5.03046 13.5721L5.01775 13.5848C4.86039 13.1422 4.77473 12.6656 4.77473 12.169C4.77473 9.83541 6.66648 7.94366 9.00008 7.94366C9.53272 7.94366 10.0423 8.04222 10.5117 8.22209C10.5174 8.27733 10.5415 8.33103 10.5838 8.37337C10.6725 8.46204 10.811 8.47042 10.9091 8.3985C11.1028 8.49677 11.2879 8.60952 11.463 8.73533L5.56639 14.632ZM5.8844 15.0232L5.75326 15.1544L5.39863 14.7997L5.56639 14.632C5.66466 14.7687 5.77089 14.8994 5.8844 15.0232ZM11.8543 9.05334L5.8844 15.0232C6.02575 15.1774 6.1784 15.3211 6.34103 15.453L6.19635 15.5976L6.55097 15.9523L6.75439 15.7488C6.9391 15.865 7.13343 15.9672 7.33591 16.054L7.17163 16.2183C7.07371 16.3162 7.07371 16.475 7.17163 16.5729C7.26956 16.6708 7.42833 16.6708 7.52626 16.5729L7.77868 16.3205C7.80467 16.2945 7.82376 16.2642 7.83595 16.232C8.20576 16.3377 8.5963 16.3944 9.00008 16.3944C11.3337 16.3944 13.2254 14.5026 13.2254 12.169C13.2254 11.6827 13.1433 11.2155 12.9921 10.7807C13.0906 10.8648 13.2388 10.8603 13.332 10.7672L13.5844 10.5147C13.6824 10.4168 13.6824 10.258 13.5844 10.1601C13.4865 10.0622 13.3278 10.0622 13.2298 10.1601L12.9774 10.4125C12.9372 10.4527 12.9136 10.5031 12.9063 10.5553C12.8151 10.3346 12.7056 10.1233 12.5799 9.92332L12.9638 9.53945L12.6092 9.18482L12.284 9.50997C12.1522 9.34733 12.0085 9.19469 11.8543 9.05334ZM11.8543 9.05334L12.1661 8.74154L11.8114 8.38691L11.463 8.73533C11.5998 8.83359 11.7304 8.93982 11.8543 9.05334ZM12.284 9.50997C12.3906 9.64145 12.4895 9.77947 12.5799 9.92332L6.75439 15.7488C6.61054 15.6584 6.47252 15.5596 6.34103 15.453L12.284 9.50997ZM12.9063 10.5553C12.8959 10.6304 12.9196 10.7094 12.9774 10.7672C12.9821 10.7719 12.987 10.7764 12.9921 10.7807C12.9656 10.7046 12.937 10.6294 12.9063 10.5553ZM7.83595 16.232C7.86972 16.1426 7.85063 16.0378 7.77868 15.9659C7.68076 15.8679 7.52199 15.8679 7.42406 15.9659L7.33591 16.054C7.49764 16.1234 7.66457 16.183 7.83595 16.232ZM10.9091 8.3985C10.9194 8.391 10.9292 8.38262 10.9384 8.37337L11.1908 8.12094C11.2888 8.02302 11.2888 7.86424 11.1908 7.76632C11.0929 7.66839 10.9342 7.66839 10.8362 7.76632L10.5838 8.01874C10.5282 8.07433 10.5042 8.14954 10.5117 8.22209C10.6477 8.2742 10.7803 8.33315 10.9091 8.3985ZM5.53531 13.4219C5.43738 13.3239 5.43738 13.1652 5.53531 13.0672L6.04016 12.5624C6.13809 12.4645 6.29686 12.4645 6.39478 12.5624C6.49271 12.6603 6.49271 12.8191 6.39478 12.917L5.88993 13.4219C5.79201 13.5198 5.63324 13.5198 5.53531 13.4219ZM6.54501 12.4122C6.44708 12.3142 6.44708 12.1555 6.54501 12.0575L7.04986 11.5527C7.14778 11.4548 7.30655 11.4548 7.40448 11.5527C7.50241 11.6506 7.50241 11.8094 7.40448 11.9073L6.89963 12.4122C6.80171 12.5101 6.64293 12.5101 6.54501 12.4122ZM7.5547 11.4025C7.45678 11.3045 7.45678 11.1458 7.5547 11.0478L8.05955 10.543C8.15748 10.4451 8.31625 10.4451 8.41418 10.543C8.51211 10.6409 8.51211 10.7997 8.41418 10.8976L7.90933 11.4025C7.8114 11.5004 7.65263 11.5004 7.5547 11.4025ZM8.5644 10.3928C8.46648 10.2948 8.46648 10.1361 8.5644 10.0381L9.06925 9.53329C9.16718 9.43536 9.32595 9.43536 9.42388 9.53329C9.5218 9.63122 9.5218 9.78999 9.42388 9.88791L8.91903 10.3928C8.8211 10.4907 8.66233 10.4907 8.5644 10.3928ZM9.5741 9.38306C9.47617 9.28514 9.47617 9.12637 9.5741 9.02844L10.079 8.52359C10.1769 8.42566 10.3356 8.42566 10.4336 8.52359C10.5315 8.62152 10.5315 8.78029 10.4336 8.87822L9.92873 9.38306C9.8308 9.48099 9.67203 9.48099 9.5741 9.38306ZM7.92891 15.461C7.83098 15.559 7.83098 15.7177 7.92891 15.8156C8.02684 15.9136 8.18561 15.9136 8.28353 15.8156L8.78838 15.3108C8.88631 15.2129 8.88631 15.0541 8.78838 14.9562C8.69046 14.8582 8.53168 14.8582 8.43376 14.9562L7.92891 15.461ZM8.93861 14.4513C8.84068 14.5493 8.84068 14.708 8.93861 14.806C9.03653 14.9039 9.1953 14.9039 9.29323 14.806L9.79808 14.3011C9.89601 14.2032 9.89601 14.0444 9.79808 13.9465C9.70015 13.8485 9.54138 13.8485 9.44346 13.9465L8.93861 14.4513ZM9.9483 13.4416C9.85038 13.5396 9.85038 13.6983 9.9483 13.7963C10.0462 13.8942 10.205 13.8942 10.3029 13.7963L10.8078 13.2914C10.9057 13.1935 10.9057 13.0347 10.8078 12.9368C10.7099 12.8389 10.5511 12.8389 10.4532 12.9368L9.9483 13.4416ZM10.958 12.4319C10.8601 12.5299 10.8601 12.6886 10.958 12.7866C11.0559 12.8845 11.2147 12.8845 11.3126 12.7866L11.8175 12.2817C11.9154 12.1838 11.9154 12.025 11.8175 11.9271C11.7195 11.8292 11.5608 11.8292 11.4629 11.9271L10.958 12.4319ZM11.9677 11.4222C11.8698 11.5202 11.8698 11.6789 11.9677 11.7769C12.0656 11.8748 12.2244 11.8748 12.3223 11.7769L12.8272 11.272C12.9251 11.1741 12.9251 11.0153 12.8272 10.9174C12.7292 10.8195 12.5705 10.8195 12.4725 10.9174L11.9677 11.4222Z" fill="white"/>
</g>
<path fill-rule="evenodd" clip-rule="evenodd" d="M18 12V0L11 3.223V0.453L4.37488 4.27777C1.75393 5.85093 0 8.72064 0 12C0 16.9706 4.02944 21 9 21C13.9706 21 18 16.9706 18 12ZM9.00001 17.5774C11.987 17.5774 14.4085 15.156 14.4085 12.169C14.4085 9.182 11.987 6.76055 9.00001 6.76055C6.01301 6.76055 3.59156 9.182 3.59156 12.169C3.59156 15.156 6.01301 17.5774 9.00001 17.5774Z" fill="white"/>
<path d="M31.0318 11.0939H26.5923L25.8245 15.5H22.8037L24.9233 3.48335H33.3016L32.8343 6.08695H27.4601L27.0429 8.49029H31.4824L31.0318 11.0939ZM39.8403 12.9298C39.8403 13.2191 39.9849 13.3637 40.2742 13.3637C40.5746 13.3637 40.825 13.3081 41.0252 13.1968L40.9418 15.0828C40.4077 15.5167 39.8069 15.7337 39.1393 15.7337C37.9154 15.7337 37.2367 15.2886 37.1031 14.3985C36.5468 15.2886 35.729 15.7337 34.6497 15.7337C32.825 15.7337 31.9126 14.9492 31.9126 13.3804C31.9126 13.1134 31.9404 12.8185 31.9961 12.4958L32.3466 10.5431C32.5246 9.54174 32.9307 8.7462 33.5649 8.15649C34.2102 7.55566 35.0447 7.25524 36.0684 7.25524C37.1031 7.25524 37.8041 7.49446 38.1713 7.9729L38.2547 7.47221H40.7916L39.857 12.7295C39.8458 12.7963 39.8403 12.863 39.8403 12.9298ZM34.9001 12.1287C34.8778 12.2288 34.8667 12.3679 34.8667 12.5459C34.8667 12.7239 34.9502 12.902 35.1171 13.08C35.284 13.2469 35.5621 13.3303 35.9515 13.3303C36.3521 13.3303 36.697 13.1746 36.9863 12.863L37.487 10.0591C37.3646 9.78096 37.0753 9.64188 36.6191 9.64188C35.7624 9.64188 35.2617 10.0536 35.1171 10.8769L34.9001 12.1287ZM46.937 10.3762C46.937 9.89779 46.7034 9.65857 46.2361 9.65857C45.7799 9.65857 45.4016 9.83103 45.1012 10.176L44.1665 15.5H41.3293L42.7479 7.47221H45.3849L45.2013 8.45691C45.8578 7.64467 46.6867 7.23855 47.6881 7.23855C48.6895 7.23855 49.3404 7.48333 49.6408 7.9729C49.8299 8.28444 49.9245 8.64049 49.9245 9.04105C49.9245 9.4416 49.8967 9.81434 49.8411 10.1593L49.3904 12.7295C49.3793 12.7963 49.3737 12.8574 49.3737 12.9131C49.3737 13.2135 49.5406 13.3637 49.8744 13.3637C50.1303 13.3637 50.3584 13.3081 50.5587 13.1968L50.4753 15.0828C49.9523 15.5167 49.3571 15.7337 48.6895 15.7337C47.1763 15.7337 46.4196 15.0994 46.4196 13.831C46.4196 13.6085 46.4419 13.3693 46.4864 13.1134L46.887 10.8936C46.9203 10.6933 46.937 10.5209 46.937 10.3762ZM54.6195 15.7337C53.3288 15.7337 52.3998 15.4444 51.8323 14.8658C51.4095 14.443 51.1981 13.8755 51.1981 13.1634C51.1981 12.9298 51.2203 12.6794 51.2648 12.4124L52.3998 5.95344L55.454 4.68501L54.97 7.47221H59.5764L59.1591 9.82547H54.5527L54.2189 11.7114C54.1744 11.9228 54.1522 12.112 54.1522 12.2789C54.1522 12.9798 54.486 13.3303 55.1536 13.3303C55.5096 13.3303 55.8045 13.1801 56.0381 12.8797C56.2829 12.5793 56.4498 12.1787 56.5388 11.678H59.3093C58.842 14.3818 57.2787 15.7337 54.6195 15.7337ZM63.2395 13.3637C63.4954 13.3637 63.7235 13.3081 63.9237 13.1968L63.8403 15.0828C63.3173 15.5167 62.7221 15.7337 62.0545 15.7337C61.042 15.7337 60.3855 15.5 60.0851 15.0327C59.8848 14.7211 59.7847 14.3929 59.7847 14.048C59.7847 13.6919 59.8069 13.3804 59.8514 13.1134L60.8528 7.47221H63.6901L62.7555 12.7295C62.7443 12.7963 62.7388 12.8574 62.7388 12.9131C62.7388 13.2135 62.9057 13.3637 63.2395 13.3637ZM61.1866 4.75177C61.1866 4.03967 61.3424 3.52229 61.6539 3.19962C61.9766 2.86582 62.4717 2.69893 63.1393 2.69893C64.074 2.69893 64.5413 3.11061 64.5413 3.93397C64.5413 4.63494 64.3799 5.14676 64.0573 5.46943C63.7457 5.7921 63.2506 5.95344 62.5719 5.95344C61.6484 5.95344 61.1866 5.55288 61.1866 4.75177ZM69.4502 7.23855C70.6519 7.23855 71.5587 7.50002 72.1707 8.02297C72.6491 8.43465 72.8883 9.00767 72.8883 9.74202C72.8883 9.9868 72.8605 10.2538 72.8049 10.5431L72.4544 12.4958C72.243 13.6752 71.7479 14.5097 70.969 14.9993C70.2013 15.4889 69.1721 15.7337 67.8814 15.7337C66.5907 15.7337 65.645 15.4889 65.0441 14.9993C64.5991 14.6321 64.3765 14.0814 64.3765 13.347C64.3765 13.0911 64.4043 12.8074 64.46 12.4958L64.8105 10.5431C65.1999 8.34008 66.7465 7.23855 69.4502 7.23855ZM69.9009 10.8769C69.9231 10.7657 69.9342 10.6266 69.9342 10.4597C69.9342 10.2817 69.8619 10.0869 69.7173 9.87554C69.5726 9.66413 69.3167 9.55843 68.9495 9.55843C68.5935 9.55843 68.2931 9.68082 68.0483 9.92561C67.8035 10.1593 67.6477 10.4764 67.581 10.8769L67.364 12.1287C67.3418 12.2399 67.3306 12.3846 67.3306 12.5626C67.3306 12.7295 67.4029 12.9131 67.5476 13.1134C67.6922 13.3136 67.9426 13.4138 68.2986 13.4138C68.6658 13.4138 68.9718 13.2914 69.2166 13.0466C69.4614 12.7907 69.6171 12.4847 69.6839 12.1287L69.9009 10.8769Z" fill="white"/>
<defs>
<linearGradient id="paint0_linear_271_13764" x1="4.84612" y1="8.32087" x2="13.3627" y2="8.55868" gradientUnits="userSpaceOnUse">
<stop stop-color="#F4A63A"/>
<stop offset="0.333333" stop-color="#F33FD6"/>
<stop offset="0.666667" stop-color="#5E82F9"/>
<stop offset="1" stop-color="#1EAEE9"/>
</linearGradient>
</defs>
</svg>
