<svg width="88" height="24" viewBox="0 0 88 24" fill="none" xmlns="http://www.w3.org/2000/svg">
<path d="M14.848 15.344H7.134L5.8 23H0.551L4.234 2.12H18.792L17.98 6.644H8.642L7.917 10.82H15.631L14.848 15.344ZM30.6843 18.534C30.6843 19.0367 30.9356 19.288 31.4383 19.288C31.9603 19.288 32.3953 19.1913 32.7433 18.998L32.5983 22.275C31.6703 23.029 30.6263 23.406 29.4663 23.406C27.3396 23.406 26.1603 22.6327 25.9283 21.086C24.9616 22.6327 23.5406 23.406 21.6653 23.406C18.4946 23.406 16.9093 22.043 16.9093 19.317C16.9093 18.853 16.9576 18.3407 17.0543 17.78L17.6633 14.387C17.9726 12.647 18.6783 11.2647 19.7803 10.24C20.9016 9.196 22.3516 8.674 24.1303 8.674C25.9283 8.674 27.1463 9.08967 27.7843 9.921L27.9293 9.051H32.3373L30.7133 18.186C30.694 18.302 30.6843 18.418 30.6843 18.534ZM22.1003 17.142C22.0616 17.316 22.0423 17.5577 22.0423 17.867C22.0423 18.1763 22.1873 18.4857 22.4773 18.795C22.7673 19.085 23.2506 19.23 23.9273 19.23C24.6233 19.23 25.2226 18.9593 25.7253 18.418L26.5953 13.546C26.3826 13.0627 25.88 12.821 25.0873 12.821C23.5986 12.821 22.7286 13.5363 22.4773 14.967L22.1003 17.142ZM42.8666 14.097C42.8666 13.2657 42.4606 12.85 41.6486 12.85C40.856 12.85 40.1986 13.1497 39.6766 13.749L38.0526 23H33.1226L35.5876 9.051H40.1696L39.8506 10.762C40.9913 9.35067 42.4316 8.645 44.1716 8.645C45.9116 8.645 47.0426 9.07033 47.5646 9.921C47.8933 10.4623 48.0576 11.081 48.0576 11.777C48.0576 12.473 48.0093 13.1207 47.9126 13.72L47.1296 18.186C47.1103 18.302 47.1006 18.4083 47.1006 18.505C47.1006 19.027 47.3906 19.288 47.9706 19.288C48.4153 19.288 48.8116 19.1913 49.1596 18.998L49.0146 22.275C48.106 23.029 47.0716 23.406 45.9116 23.406C43.2823 23.406 41.9676 22.304 41.9676 20.1C41.9676 19.7133 42.0063 19.2977 42.0836 18.853L42.7796 14.996C42.8376 14.648 42.8666 14.3483 42.8666 14.097ZM56.0667 23.406C53.824 23.406 52.2097 22.9033 51.2237 21.898C50.489 21.1633 50.1217 20.1773 50.1217 18.94C50.1217 18.534 50.1603 18.099 50.2377 17.635L52.2097 6.412L57.5167 4.208L56.6757 9.051H64.6797L63.9547 13.14H55.9507L55.3707 16.417C55.2933 16.7843 55.2547 17.113 55.2547 17.403C55.2547 18.621 55.8347 19.23 56.9947 19.23C57.6133 19.23 58.1257 18.969 58.5317 18.447C58.957 17.925 59.247 17.229 59.4017 16.359H64.2157C63.4037 21.057 60.6873 23.406 56.0667 23.406ZM70.8957 19.288C71.3403 19.288 71.7367 19.1913 72.0847 18.998L71.9397 22.275C71.031 23.029 69.9967 23.406 68.8367 23.406C67.0773 23.406 65.9367 23 65.4147 22.188C65.0667 21.6467 64.8927 21.0763 64.8927 20.477C64.8927 19.8583 64.9313 19.317 65.0087 18.853L66.7487 9.051H71.6787L70.0547 18.186C70.0353 18.302 70.0257 18.4083 70.0257 18.505C70.0257 19.027 70.3157 19.288 70.8957 19.288ZM67.3287 4.324C67.3287 3.08667 67.5993 2.18767 68.1407 1.627C68.7013 1.047 69.5617 0.756999 70.7217 0.756999C72.3457 0.756999 73.1577 1.47233 73.1577 2.903C73.1577 4.121 72.8773 5.01033 72.3167 5.571C71.7753 6.13167 70.915 6.412 69.7357 6.412C68.131 6.412 67.3287 5.716 67.3287 4.324ZM81.5385 8.645C83.6265 8.645 85.2022 9.09933 86.2655 10.008C87.0968 10.7233 87.5125 11.719 87.5125 12.995C87.5125 13.4203 87.4642 13.8843 87.3675 14.387L86.7585 17.78C86.3912 19.8293 85.5308 21.2793 84.1775 22.13C82.8435 22.9807 81.0552 23.406 78.8125 23.406C76.5698 23.406 74.9265 22.9807 73.8825 22.13C73.1092 21.492 72.7225 20.535 72.7225 19.259C72.7225 18.8143 72.7708 18.3213 72.8675 17.78L73.4765 14.387C74.1532 10.559 76.8405 8.645 81.5385 8.645ZM82.3215 14.967C82.3602 14.7737 82.3795 14.532 82.3795 14.242C82.3795 13.9327 82.2538 13.5943 82.0025 13.227C81.7512 12.8597 81.3065 12.676 80.6685 12.676C80.0498 12.676 79.5278 12.8887 79.1025 13.314C78.6772 13.72 78.4065 14.271 78.2905 14.967L77.9135 17.142C77.8748 17.3353 77.8555 17.5867 77.8555 17.896C77.8555 18.186 77.9812 18.505 78.2325 18.853C78.4838 19.201 78.9188 19.375 79.5375 19.375C80.1755 19.375 80.7072 19.1623 81.1325 18.737C81.5578 18.2923 81.8285 17.7607 81.9445 17.142L82.3215 14.967Z" fill="white"/>
</svg>
