<svg width="25" height="25" viewBox="0 0 25 25" fill="none" xmlns="http://www.w3.org/2000/svg">
<path d="M21.5 5H3.5C3.30109 5 3.11032 5.07902 2.96967 5.21967C2.82902 5.36032 2.75 5.55109 2.75 5.75V18.5C2.75 18.8978 2.90804 19.2794 3.18934 19.5607C3.47064 19.842 3.85218 20 4.25 20H20.75C21.1478 20 21.5294 19.842 21.8107 19.5607C22.092 19.2794 22.25 18.8978 22.25 18.5V5.75C22.25 5.55109 22.171 5.36032 22.0303 5.21967C21.8897 5.07902 21.6989 5 21.5 5ZM12.5 12.9828L5.42844 6.5H19.5716L12.5 12.9828ZM9.75406 12.5L4.25 17.5447V7.45531L9.75406 12.5ZM10.8641 13.5172L11.9891 14.5531C12.1274 14.6801 12.3084 14.7506 12.4963 14.7506C12.6841 14.7506 12.8651 14.6801 13.0034 14.5531L14.1284 13.5172L19.5659 18.5H5.42844L10.8641 13.5172ZM15.2459 12.5L20.75 7.45438V17.5456L15.2459 12.5Z" fill="url(#paint0_linear_271_13762)"/>
<defs>
<linearGradient id="paint0_linear_271_13762" x1="2.91433" y1="5.66964" x2="22.5557" y2="6.38264" gradientUnits="userSpaceOnUse">
<stop stop-color="#F4A63A"/>
<stop offset="0.333333" stop-color="#F33FD6"/>
<stop offset="0.666667" stop-color="#5E82F9"/>
<stop offset="1" stop-color="#1EAEE9"/>
</linearGradient>
</defs>
</svg>
